<?xml version="1.0" encoding="UTF-8" standalone="no"?>
<svg
   xmlns:dc="http://purl.org/dc/elements/1.1/"
   xmlns:cc="http://creativecommons.org/ns#"
   xmlns:rdf="http://www.w3.org/1999/02/22-rdf-syntax-ns#"
   xmlns:svg="http://www.w3.org/2000/svg"
   xmlns="http://www.w3.org/2000/svg"
   xmlns:xlink="http://www.w3.org/1999/xlink"
   xmlns:sodipodi="http://sodipodi.sourceforge.net/DTD/sodipodi-0.dtd"
   xmlns:inkscape="http://www.inkscape.org/namespaces/inkscape"
   width="48"
   height="48"
   version="1.1"
   id="svg2"
   sodipodi:docname="colorful.svg"
   inkscape:version="0.92.4 (5da689c313, 2019-01-14)">
  <metadata
     id="metadata8">
    <rdf:RDF>
      <cc:Work
         rdf:about="">
        <dc:format>image/svg+xml</dc:format>
        <dc:type
           rdf:resource="http://purl.org/dc/dcmitype/StillImage" />
        <dc:title></dc:title>
      </cc:Work>
    </rdf:RDF>
  </metadata>
  <defs
     id="defs6">
    <linearGradient
       x1="428.816"
       gradientTransform="translate(-384.57,-499.8)"
       gradientUnits="userSpaceOnUse"
       x2="388.865"
       y2="499.679"
       y1="547.634"
       id="a">
      <stop
         id="stop4921"
         stop-color="#2a2c2f" />
      <stop
         id="stop4923"
         stop-color="#536161"
         offset="1" />
    </linearGradient>
    <linearGradient
       x1="36"
       gradientUnits="userSpaceOnUse"
       x2="14"
       y2="12"
       y1="44"
       id="b">
      <stop
         id="stop4926"
         style="stop-color:#bfc9c9;stop-opacity:1"
         stop-color="#536161" />
      <stop
         id="stop4928"
         style="stop-color:#fbfbfb;stop-opacity:1"
         stop-color="#f4f5f5"
         offset="1" />
    </linearGradient>
    <linearGradient
       gradientTransform="translate(-384.57,-499.8)"
       gradientUnits="userSpaceOnUse"
       x2="419.974"
       y2="539.825"
       x1="406.501"
       y1="527.014"
       id="c">
      <stop
         id="stop4931"
         stop-color="#292c2f" />
      <stop
         id="stop4933"
         stop-opacity="0"
         offset="1" />
    </linearGradient>
    <linearGradient
       gradientTransform="matrix(0.69224711,0,0,0.69224711,-280.19324,674.76546)"
       gradientUnits="userSpaceOnUse"
       y2="529.576"
       x2="440.878"
       y1="502.85"
       x1="424.441"
       id="linearGradient4399"
       xlink:href="#linearGradient4393" />
    <linearGradient
       id="linearGradient4393">
      <stop
         id="stop5087"
         offset="0"
         style="stop-color:#000000;stop-opacity:1;" />
      <stop
         id="stop5089"
         offset="1"
         style="stop-color:#000000;stop-opacity:0;" />
    </linearGradient>
    <linearGradient
       y2="498.298"
       x2="442.571"
       y1="498.298"
       x1="390.571"
       gradientTransform="matrix(0.69224711,0,0,0.69224711,-264.27155,2671.7976)"
       gradientUnits="userSpaceOnUse"
       id="linearGradient4217"
       xlink:href="#linearGradient4274" />
    <linearGradient
       id="linearGradient4274">
      <stop
         id="stop5093"
         style="stop-color:#ffffff;stop-opacity:1;"
         offset="0" />
      <stop
         id="stop5095"
         style="stop-color:#ffffff;stop-opacity:0.48760331"
         offset="1" />
    </linearGradient>
    <linearGradient
       x1="434.162"
       gradientTransform="matrix(0.69224711,0,0,0.69202181,-264.27155,671.42636)"
       gradientUnits="userSpaceOnUse"
       x2="397.228"
       y2="495.308"
       y1="548.886"
       id="linearGradient4178"
       xlink:href="#linearGradient4172-5" />
    <linearGradient
       id="linearGradient4172-5">
      <stop
         id="stop5099"
         style="stop-color:#127bdc;stop-opacity:1" />
      <stop
         id="stop5101"
         style="stop-color:#64b4f4;stop-opacity:1"
         offset="1" />
    </linearGradient>
    <linearGradient
       gradientTransform="matrix(0.69224711,0,0,0.69224711,-264.27155,671.68871)"
       y2="511.798"
       x2="426.571"
       y1="498.798"
       x1="396.571"
       gradientUnits="userSpaceOnUse"
       id="linearGradient4225"
       xlink:href="#linearGradient4227" />
    <linearGradient
       id="linearGradient4227">
      <stop
         id="stop5105"
         style="stop-color:#f5f5f5;stop-opacity:1"
         offset="0" />
      <stop
         id="stop5107"
         style="stop-color:#f9f9f9;stop-opacity:1"
         offset="1" />
    </linearGradient>
    <linearGradient
       gradientUnits="userSpaceOnUse"
       y2="507.798"
       x2="416.571"
       y1="487.798"
       x1="388.571"
       id="linearGradient4297"
       xlink:href="#linearGradient4291"
       gradientTransform="matrix(0.69224711,0,0,0.69224711,-264.27155,671.30423)" />
    <linearGradient
       id="linearGradient4291">
      <stop
         id="stop5111"
         offset="0"
         style="stop-color:#1d5e8c;stop-opacity:1" />
      <stop
         id="stop5113"
         offset="1"
         style="stop-color:#2675a7;stop-opacity:1" />
    </linearGradient>
    <linearGradient
       gradientTransform="matrix(-1.08253.63333-.625-1.09696 1174.65 852.48)"
       gradientUnits="userSpaceOnUse"
       x2="389.88"
       y2="513.54"
       x1="390.08"
       y1="534.08"
       id="a-2">
      <stop
         id="stop5195"
         stop-color="#fcfcfc" />
      <stop
         id="stop5197"
         stop-color="#b677d3"
         offset="1" />
    </linearGradient>
    <linearGradient
       gradientTransform="matrix(1.08253,0.63333,0.625,-1.09696,-357.51,852.48)"
       gradientUnits="userSpaceOnUse"
       x2="395.45"
       y2="526.79"
       x1="382.21"
       y1="532.43"
       id="b-4"
       xlink:href="#a-2" />
    <linearGradient
       gradientTransform="matrix(1.25,0,0,1.26667,388.57,502.26)"
       gradientUnits="userSpaceOnUse"
       x2="7.07"
       y2="4.759"
       x1="25.13"
       y1="20.16"
       id="c-7">
      <stop
         id="stop5201"
         stop-color="#c0392b" />
      <stop
         id="stop5203"
         stop-color="#b677d3"
         offset="1" />
    </linearGradient>
    <linearGradient
       gradientTransform="matrix(1.25 0 0 1.26667-92.14-151.08)"
       gradientUnits="userSpaceOnUse"
       x2="392.9"
       y2="546.58"
       x1="400.57"
       y1="537.6"
       id="d">
      <stop
         id="stop5206"
         stop-color="#ffc35a" />
      <stop
         id="stop5208"
         stop-color="#faae2a"
         offset="1" />
    </linearGradient>
    <linearGradient
       gradientTransform="matrix(1.25,0,0,1.26667,-92.14,-151.08)"
       gradientUnits="userSpaceOnUse"
       x2="390.56"
       y2="539.31"
       x1="393.43"
       y1="538.07"
       id="e"
       xlink:href="#d" />
    <linearGradient
       gradientTransform="matrix(1.25,0,0,1.26667,-92.14,-151.08)"
       gradientUnits="userSpaceOnUse"
       x2="386.57"
       y2="540.75"
       x1="390.57"
       y1="535.36"
       id="f">
      <stop
         id="stop5212"
         stop-color="#fdbc4b" />
      <stop
         id="stop5214"
         stop-color="#dde341"
         offset="1" />
    </linearGradient>
    <linearGradient
       gradientTransform="matrix(0.95819,0.56059,0.55321,-0.97096,-270.72,815.18)"
       gradientUnits="userSpaceOnUse"
       x2="388.89"
       y2="522.66"
       x1="393.1"
       y1="524.44"
       id="g"
       xlink:href="#d" />
    <linearGradient
       gradientTransform="matrix(-0.95819,0.56059,-0.55321,-0.97096,1087.86,815.18)"
       gradientUnits="userSpaceOnUse"
       x2="389.45"
       y2="521.73"
       x1="392.69"
       y1="522.9"
       id="h"
       xlink:href="#d" />
    <linearGradient
       gradientTransform="matrix(-1.25,0,0,1.26667,909.29,-151.08)"
       gradientUnits="userSpaceOnUse"
       x2="386.57"
       y2="540.75"
       x1="390.57"
       y1="535.36"
       id="i"
       xlink:href="#d" />
    <linearGradient
       gradientTransform="matrix(-1.25,0,0,1.26667,909.29,-151.08)"
       gradientUnits="userSpaceOnUse"
       x2="390.56"
       y2="539.31"
       x1="393.43"
       y1="538.07"
       id="j"
       xlink:href="#d" />
    <linearGradient
       gradientTransform="matrix(-1.25,0,0,1.26667,909.29,-151.08)"
       gradientUnits="userSpaceOnUse"
       x2="392.9"
       y2="546.58"
       x1="400.57"
       y1="537.6"
       id="k"
       xlink:href="#d" />
    <linearGradient
       gradientTransform="matrix(-1.25 0 0 1.26667 909.29-152.35)"
       gradientUnits="userSpaceOnUse"
       x2="389.57"
       y2="542.8"
       x1="396.57"
       y1="535.8"
       id="l">
      <stop
         id="stop5222" />
      <stop
         id="stop5224"
         stop-opacity="0"
         offset="1" />
    </linearGradient>
    <linearGradient
       gradientTransform="matrix(-1.25,0,0,1.26667,914.29,-151.08)"
       gradientUnits="userSpaceOnUse"
       x2="389.57"
       y2="542.8"
       x1="396.57"
       y1="535.8"
       id="m"
       xlink:href="#l" />
    <linearGradient
       gradientTransform="matrix(-1.25,0,0,1.26667,919.29,-151.08)"
       gradientUnits="userSpaceOnUse"
       x2="389.57"
       y2="542.8"
       x1="396.57"
       y1="535.8"
       id="n"
       xlink:href="#l" />
    <linearGradient
       gradientTransform="matrix(-1.25,0,0,1.26667,890.54,-167.55)"
       gradientUnits="userSpaceOnUse"
       x2="384.57"
       y2="547.8"
       x1="396.57"
       y1="535.8"
       id="o"
       xlink:href="#l" />
    <linearGradient
       gradientTransform="matrix(1.25,0,0,1.26667,-92.14,-151.08)"
       gradientUnits="userSpaceOnUse"
       x2="386.57"
       y2="540.75"
       x1="390.57"
       y1="535.36"
       id="p"
       xlink:href="#d" />
    <path
       d="m394.82 525.06c-3.75 2.533 0 5.067-2.5 7.6-2.5 2.533-3.75 1.267-3.75 2.533 0 1.267 3.75 3.8 6.25 1.267 2.5-2.533 2.5-3.8 2.5-3.8 0 0 2.5-2.533 1.25-5.067-1.25-2.533-3.75-2.533-3.75-2.533"
       id="q"
       fill-rule="evenodd" />
    <linearGradient
       inkscape:collect="always"
       xlink:href="#a-2"
       id="linearGradient5371"
       gradientUnits="userSpaceOnUse"
       gradientTransform="matrix(-1.08253,0.63333,-0.625,-1.09696,1174.65,852.48)"
       x1="390.08"
       y1="534.08"
       x2="389.88"
       y2="513.54" />
    <linearGradient
       inkscape:collect="always"
       xlink:href="#l"
       id="linearGradient5373"
       gradientUnits="userSpaceOnUse"
       gradientTransform="matrix(-1.25,0,0,1.26667,909.29,-152.35)"
       x1="396.57"
       y1="535.8"
       x2="389.57"
       y2="542.8" />
    <linearGradient
       inkscape:collect="always"
       xlink:href="#d"
       id="linearGradient5375"
       gradientUnits="userSpaceOnUse"
       gradientTransform="matrix(1.25,0,0,1.26667,-92.14,-151.08)"
       x1="400.57"
       y1="537.6"
       x2="392.9"
       y2="546.58" />
  </defs>
  <sodipodi:namedview
     pagecolor="#000000"
     bordercolor="#ffffff"
     borderopacity="1"
     objecttolerance="10"
     gridtolerance="10"
     guidetolerance="10"
     inkscape:pageopacity="0.54117647"
     inkscape:pageshadow="2"
     inkscape:window-width="1920"
     inkscape:window-height="987"
     id="namedview4"
     showgrid="true"
     showguides="true"
     inkscape:guide-bbox="true"
     inkscape:current-layer="layer5"
     inkscape:zoom="13.906433"
     inkscape:cx="69.474937"
     inkscape:cy="16.315101"
     inkscape:window-x="1280"
     inkscape:window-y="34"
     inkscape:window-maximized="1"
     inkscape:snap-bbox="true"
     inkscape:bbox-paths="true"
     inkscape:pagecheckerboard="true"
     borderlayer="true"
     inkscape:bbox-nodes="true"
     inkscape:showpageshadow="false">
    <inkscape:grid
       type="xygrid"
       id="grid10"
       empspacing="4" />
    <sodipodi:guide
       position="4,44"
       orientation="0,1"
       id="guide12"
       inkscape:locked="false" />
    <sodipodi:guide
       position="44,44"
       orientation="1,0"
       id="guide14"
       inkscape:locked="false" />
    <sodipodi:guide
       position="44,4"
       orientation="0,1"
       id="guide16"
       inkscape:locked="false" />
    <sodipodi:guide
       position="4,4"
       orientation="1,0"
       id="guide18"
       inkscape:locked="false" />
  </sodipodi:namedview>
  <g
     inkscape:groupmode="layer"
     id="layer1"
     inkscape:label="Information">
    <a
       transform="translate(-0.53905743,16)"
       id="a927-6"
       style="opacity:0.99" />
    <a
       style="fill:#ffffff"
       id="a927">
      <text
         id="text925"
         y="7.9166665"
         x="-75.901047"
         style="font-style:normal;font-weight:normal;font-size:40px;line-height:1.25;font-family:sans-serif;letter-spacing:0px;word-spacing:0px;fill:#ffffff;fill-opacity:1;stroke:none"
         xml:space="preserve"><tspan
           style="font-size:5.33333349px;fill:#ffffff"
           y="7.9166665"
           x="-75.901047"
           id="tspan923"
           sodipodi:role="line">Need help? Ask in the VDG.</tspan></text>
    </a>
    <a
       style="fill:#ffffff"
       transform="translate(-5.9999975,18)"
       id="a927-7">
      <a
         id="a4691"
         xlink:href="https://webchat.kde.org/#/room/#kde-vdg:kde.org"
         style="fill:#ffffff">
        <text
           xml:space="preserve"
           style="font-style:normal;font-weight:normal;font-size:40px;line-height:1.25;font-family:sans-serif;letter-spacing:0px;word-spacing:0px;fill:#ffffff;fill-opacity:1;stroke:none"
           x="-118.76042"
           y="-1.9999999"
           id="text925-6"><tspan
             sodipodi:role="line"
             id="tspan923-1"
             x="-118.76042"
             y="-1.9999999"
             style="font-size:5.33333349px;fill:#ffffff">https://community.kde.org/Get_Involved/design</tspan></text>
      </a>
    </a>
    <text
       id="text925-4"
       y="34.86198"
       x="-129.1302"
       style="font-style:normal;font-weight:normal;font-size:40px;line-height:1.25;font-family:sans-serif;letter-spacing:0px;word-spacing:0px;opacity:0.98999999;fill:#ffffff;fill-opacity:1;stroke:none"
       xml:space="preserve"><tspan
         style="font-size:5.33333349px;fill:#ffffff"
         y="34.86198"
         x="-129.1302"
         id="tspan923-12"
         sodipodi:role="line">Be sure to read the HIG when designing your icon.</tspan></text>
    <text
       transform="translate(-0.53905743,16)"
       id="text925-4-8"
       y="28"
       x="-92.35157"
       style="opacity:0.99;font-style:normal;font-weight:normal;font-size:40px;line-height:1.25;font-family:sans-serif;letter-spacing:0px;word-spacing:0px;fill:#ffffff;fill-opacity:1;stroke:none;"
       xml:space="preserve"><tspan
         style="font-size:5.33333349px;fill:#ffffff;"
         y="28"
         x="-92.35157"
         id="tspan923-12-8"
         sodipodi:role="line">https://hig.kde.org/style/icon.html</tspan></text>
    <a
       transform="translate(127.46094,0.08333361)"
       id="a927-8" />
    <text
       xml:space="preserve"
       style="font-style:normal;font-variant:normal;font-weight:normal;font-stretch:normal;font-size:3.89600515px;line-height:1.25;font-family:'Noto Sans';-inkscape-font-specification:'Noto Sans';letter-spacing:0px;word-spacing:0px;fill:#ffffff;fill-opacity:1;stroke:none;stroke-width:0.09740013"
       x="15.481506"
       y="52.781754"
       id="text2004-4-9"><tspan
         sodipodi:role="line"
         id="tspan2002-7-4"
         x="15.481506"
         y="52.781754"
         style="font-style:normal;font-variant:normal;font-weight:normal;font-stretch:normal;font-family:'Noto Sans';-inkscape-font-specification:'Noto Sans';fill:#ffffff;stroke-width:0.09740013">Your Icon</tspan></text>
  </g>
  <g
     inkscape:groupmode="layer"
     id="layer2"
     inkscape:label="Examples">
    <g
       inkscape:groupmode="layer"
       id="layer5"
       inkscape:label="Example Labels">
      <text
         xml:space="preserve"
         style="font-style:normal;font-variant:normal;font-weight:normal;font-stretch:normal;font-size:3.89600515px;line-height:1.25;font-family:'Noto Sans';-inkscape-font-specification:'Noto Sans';letter-spacing:0px;word-spacing:0px;fill:#ffffff;fill-opacity:1;stroke:none;stroke-width:0.09740013"
         x="68.421539"
         y="52.871357"
         id="text2004-4-9-8"><tspan
           sodipodi:role="line"
           id="tspan2002-7-4-1"
           x="68.421539"
           y="52.871357"
           style="font-style:normal;font-variant:normal;font-weight:normal;font-stretch:normal;font-family:'Noto Sans';-inkscape-font-specification:'Noto Sans';fill:#ffffff;stroke-width:0.09740013">Margins</tspan></text>
      <text
         xml:space="preserve"
         style="font-style:normal;font-variant:normal;font-weight:normal;font-stretch:normal;font-size:3.89600515px;line-height:1.25;font-family:'Noto Sans';-inkscape-font-specification:'Noto Sans';letter-spacing:0px;word-spacing:0px;fill:#ffffff;fill-opacity:1;stroke:none;stroke-width:0.09740013"
         x="111.14019"
         y="52.960964"
         id="text2004-4-9-8-0"><tspan
           sodipodi:role="line"
           id="tspan2002-7-4-1-5"
           x="111.14019"
           y="52.960964"
           style="font-style:normal;font-variant:normal;font-weight:normal;font-stretch:normal;font-family:'Noto Sans';-inkscape-font-specification:'Noto Sans';fill:#ffffff;stroke-width:0.09740013">Example - Konsole</tspan></text>
      <text
         xml:space="preserve"
         style="font-style:normal;font-variant:normal;font-weight:normal;font-stretch:normal;font-size:3.89600515px;line-height:1.25;font-family:'Noto Sans';-inkscape-font-specification:'Noto Sans';letter-spacing:0px;word-spacing:0px;fill:#ffffff;fill-opacity:1;stroke:none;stroke-width:0.09740013"
         x="163.28748"
         y="52.960964"
         id="text2004-4-9-8-0-3"><tspan
           sodipodi:role="line"
           id="tspan2002-7-4-1-5-4"
           x="163.28748"
           y="52.960964"
           style="font-style:normal;font-variant:normal;font-weight:normal;font-stretch:normal;font-family:'Noto Sans';-inkscape-font-specification:'Noto Sans';fill:#ffffff;stroke-width:0.09740013">Example - Dolphin</tspan></text>
      <text
         xml:space="preserve"
         style="font-style:normal;font-variant:normal;font-weight:normal;font-stretch:normal;font-size:3.89600515px;line-height:1.25;font-family:'Noto Sans';-inkscape-font-specification:'Noto Sans';letter-spacing:0px;word-spacing:0px;fill:#ffffff;fill-opacity:1;stroke:none;stroke-width:0.09740013"
         x="213.74658"
         y="52.980442"
         id="text2004-4-9-8-0-3-6"><tspan
           sodipodi:role="line"
           id="tspan2002-7-4-1-5-4-2"
           x="213.74658"
           y="52.980442"
           style="font-style:normal;font-variant:normal;font-weight:normal;font-stretch:normal;font-family:'Noto Sans';-inkscape-font-specification:'Noto Sans';fill:#ffffff;stroke-width:0.09740013">Example - Cuttlefish</tspan></text>
    </g>
    <g
       inkscape:groupmode="layer"
       id="layer4"
       inkscape:label="Example Background">
      <rect
         style="opacity:1;fill:#ffffff;fill-opacity:0.15789473;stroke:none;stroke-width:1.05448818;stroke-miterlimit:4;stroke-dasharray:none;stroke-opacity:1"
         id="rect4970"
         width="48"
         height="48"
         x="104"
         y="0" />
      <rect
         style="opacity:1;fill:#ffffff;fill-opacity:0.15789472;stroke:none;stroke-width:1.05448818;stroke-miterlimit:4;stroke-dasharray:none;stroke-opacity:1"
         id="rect4970-3"
         width="48"
         height="48"
         x="156"
         y="0" />
      <rect
         style="opacity:1;fill:#ffffff;fill-opacity:0.15789472;stroke:none;stroke-width:1.05448818;stroke-miterlimit:4;stroke-dasharray:none;stroke-opacity:1"
         id="rect4970-3-2"
         width="48"
         height="48"
         x="208"
         y="0" />
    </g>
    <g
       inkscape:groupmode="layer"
       id="layer3"
       inkscape:label="Example Foreground">
      <g
         style=""
         id="g4968"
         transform="translate(104)">
        <rect
           id="rect4938"
           ry="1"
           width="40"
           x="4"
           y="4"
           rx="1"
           height="40"
           style="fill:url(#a)" />
        <path
           id="path4940"
           d="m 4,42 v 1 c 0,0.554007 0.4459958,1 1,1 h 38 c 0.554004,0 1,-0.445993 1,-1 v -1 c 0,0.554007 -0.445996,1 -1,1 H 5 C 4.4459958,43 4,42.554007 4,42 Z"
           style="opacity:0.3;fill:#000000;fill-opacity:1"
           inkscape:connector-curvature="0" />
        <path
           id="path4942"
           d="M 20.414,14 19,15.414 27.586,24 19,32.586 20.414,34 30.414,24 29,22.586 Z"
           style="fill:url(#b);stroke:none;stroke-width:0.2;stroke-miterlimit:4;stroke-dasharray:none;stroke-opacity:1"
           inkscape:connector-curvature="0" />
        <path
           id="path4944"
           style="opacity:0.4;fill:url(#c);fill-rule:evenodd"
           d="m 20.42,34 9.586,9.586 h 14 v -6 L 30.42,24 Z"
           inkscape:connector-curvature="0" />
        <path
           id="path4946"
           style="opacity:0.3;fill:#ffffff;fill-opacity:1"
           d="M 4,6 V 5 C 4,4.445993 4.445996,4 5,4 h 38 c 0.554004,0 1,0.445993 1,1 V 6 C 44,5.445993 43.554004,5 43,5 H 5 C 4.445996,5 4,5.445993 4,6 Z"
           inkscape:connector-curvature="0" />
      </g>
      <g
         style=""
         id="g4901"
         transform="translate(52,52)">
        <path
           id="rect1922-6"
           d="m 0,-8 h 48 v 4 H 0 Z"
           style="opacity:1;fill:#000000;fill-opacity:1;stroke:none;stroke-width:5.16591597;stroke-miterlimit:4;stroke-dasharray:none;stroke-opacity:1"
           inkscape:connector-curvature="0" />
        <path
           id="rect1922-6-9"
           d="m 0,-52 h 48 v 4 H 0 Z"
           style="opacity:1;fill:#000000;fill-opacity:1;stroke:none;stroke-width:5.16591597;stroke-miterlimit:4;stroke-dasharray:none;stroke-opacity:1"
           inkscape:connector-curvature="0" />
        <path
           id="rect1922-6-9-2"
           d="M 0,-48 H 4 V -8 H 0 Z"
           style="opacity:1;fill:#666666;fill-opacity:1;stroke:none;stroke-width:4.71581459;stroke-miterlimit:4;stroke-dasharray:none;stroke-opacity:1"
           inkscape:connector-curvature="0" />
        <path
           id="rect1922-6-9-2-2"
           d="m 44,-48 h 4 v 40 h -4 z"
           style="opacity:1;fill:#666666;fill-opacity:1;stroke:none;stroke-width:4.71581459;stroke-miterlimit:4;stroke-dasharray:none;stroke-opacity:1"
           inkscape:connector-curvature="0" />
        <rect
           rx="0"
           y="-48"
           x="4"
           height="40"
           width="40"
           id="rect2000"
           style="opacity:1;fill:#ececec;fill-opacity:1;stroke:none;stroke-width:1.05448818;stroke-miterlimit:4;stroke-dasharray:none;stroke-opacity:1" />
        <text
           id="text2004"
           y="-48.538998"
           x="12.093322"
           style="font-style:normal;font-variant:normal;font-weight:normal;font-stretch:normal;font-size:3.89600515px;line-height:1.25;font-family:'Noto Sans';-inkscape-font-specification:'Noto Sans';letter-spacing:0px;word-spacing:0px;fill:#ffffff;fill-opacity:1;stroke:none;stroke-width:0.09740013"
           xml:space="preserve"><tspan
             style="font-style:normal;font-variant:normal;font-weight:normal;font-stretch:normal;font-family:'Noto Sans';-inkscape-font-specification:'Noto Sans';fill:#ffffff;stroke-width:0.09740013"
             y="-48.538998"
             x="12.093322"
             id="tspan2002"
             sodipodi:role="line">Should Avoid</tspan></text>
        <text
           id="text2004-4"
           y="-4.5389981"
           x="12.093322"
           style="font-style:normal;font-variant:normal;font-weight:normal;font-stretch:normal;font-size:3.89600515px;line-height:1.25;font-family:'Noto Sans';-inkscape-font-specification:'Noto Sans';letter-spacing:0px;word-spacing:0px;fill:#ffffff;fill-opacity:1;stroke:none;stroke-width:0.09740013"
           xml:space="preserve"><tspan
             style="font-style:normal;font-variant:normal;font-weight:normal;font-stretch:normal;font-family:'Noto Sans';-inkscape-font-specification:'Noto Sans';fill:#ffffff;stroke-width:0.09740013"
             y="-4.5389981"
             x="12.093322"
             id="tspan2002-7"
             sodipodi:role="line">Should Avoid</tspan></text>
        <text
           transform="rotate(-90)"
           id="text2004-4-6"
           y="3.0129614"
           x="13.030087"
           style="font-style:normal;font-variant:normal;font-weight:normal;font-stretch:normal;font-size:3.89600515px;line-height:1.25;font-family:'Noto Sans';-inkscape-font-specification:'Noto Sans';letter-spacing:0px;word-spacing:0px;fill:#ffffff;fill-opacity:1;stroke:none;stroke-width:0.09740013"
           xml:space="preserve"><tspan
             style="font-style:normal;font-variant:normal;font-weight:normal;font-stretch:normal;font-family:'Noto Sans';-inkscape-font-specification:'Noto Sans';fill:#ffffff;stroke-width:0.09740013"
             y="3.0129614"
             x="13.030087"
             id="tspan2002-7-3"
             sodipodi:role="line">Optionally Avoid</tspan></text>
        <text
           transform="rotate(-90)"
           id="text2004-4-6-1"
           y="47.012962"
           x="13.030087"
           style="font-style:normal;font-variant:normal;font-weight:normal;font-stretch:normal;font-size:3.89600515px;line-height:1.25;font-family:'Noto Sans';-inkscape-font-specification:'Noto Sans';letter-spacing:0px;word-spacing:0px;fill:#ffffff;fill-opacity:1;stroke:none;stroke-width:0.09740013"
           xml:space="preserve"><tspan
             style="font-style:normal;font-variant:normal;font-weight:normal;font-stretch:normal;font-family:'Noto Sans';-inkscape-font-specification:'Noto Sans';fill:#ffffff;stroke-width:0.09740013"
             y="47.012962"
             x="13.030087"
             id="tspan2002-7-3-7"
             sodipodi:role="line">Optionally Avoid</tspan></text>
        <text
           id="text2004-5"
           y="-26.583801"
           x="14.699718"
           style="font-style:normal;font-variant:normal;font-weight:normal;font-stretch:normal;font-size:3.89600515px;line-height:1.25;font-family:'Noto Sans';-inkscape-font-specification:'Noto Sans';letter-spacing:0px;word-spacing:0px;fill:#1a1a1a;fill-opacity:1;stroke:none;stroke-width:0.09740013"
           xml:space="preserve"><tspan
             style="font-style:normal;font-variant:normal;font-weight:normal;font-stretch:normal;font-family:'Noto Sans';-inkscape-font-specification:'Noto Sans';fill:#1a1a1a;stroke-width:0.09740013"
             y="-26.583801"
             x="14.699718"
             id="tspan2002-9"
             sodipodi:role="line">Main Area</tspan></text>
      </g>
      <g
         style=""
         id="g5134"
         transform="translate(156,-1002.3627)">
        <path
           id="path5118"
           d="m 4,1030.3622 h 40 v -17 H 24 l -3,-3 H 4 Z"
           style="fill:url(#linearGradient4297);fill-opacity:1"
           inkscape:connector-curvature="0" />
        <rect
           id="rect5120"
           style="color:#000000;clip-rule:nonzero;display:inline;overflow:visible;visibility:visible;opacity:1;isolation:auto;mix-blend-mode:normal;color-interpolation:sRGB;color-interpolation-filters:linearRGB;solid-color:#000000;solid-opacity:1;fill:url(#linearGradient4225);fill-opacity:1;fill-rule:nonzero;stroke:none;stroke-width:1;stroke-linecap:butt;stroke-linejoin:miter;stroke-miterlimit:4;stroke-dasharray:none;stroke-dashoffset:0;stroke-opacity:1;marker:none;color-rendering:auto;image-rendering:auto;shape-rendering:auto;text-rendering:auto;enable-background:accumulate"
           width="38"
           height="9"
           x="5"
           y="1017.36"
           rx="1"
           ry="1" />
        <path
           id="path5122"
           d="m 20,1023.3622 -3,2 H 4 v 1 l -1e-6,18.9982 c 0,0.5398 0.4886447,0.9906 0.9837517,0.9907 L 43,1046.3622 c 0.510707,0.016 1,-0.3955 1,-1 v -22 z"
           style="fill:url(#linearGradient4178)"
           inkscape:connector-curvature="0" />
        <path
           id="path5124"
           d="m 4,1025.3622 v 1 h 14 l 2,-3 -3,2 z"
           style="opacity:0.3;fill:#ffffff;fill-opacity:1;fill-rule:evenodd"
           inkscape:connector-curvature="0" />
        <path
           id="path5126"
           d="m 21,1010.3622 2,4 h 2 19 v -1 H 25 24 Z"
           style="opacity:0.3;fill:#ffffff;fill-opacity:1;fill-rule:evenodd"
           inkscape:connector-curvature="0" />
        <path
           id="path5128"
           d="m 4,1026.3622 h 14 l 2,-3 24,10e-5 0.17398,22.3079 H 23.406566 Z"
           style="opacity:0.09899998;fill:url(#linearGradient4399);fill-opacity:1;fill-rule:evenodd;stroke:none;stroke-width:1px;stroke-linecap:butt;stroke-linejoin:miter;stroke-opacity:1"
           inkscape:connector-curvature="0" />
        <path
           id="path5130"
           transform="translate(0,1004.3622)"
           d="m 4,39.998047 v 1 c 0,0.5398 0.489268,0.990134 0.984375,0.990234 L 43,42 c 0.510707,0.016 1,-0.3955 1,-1 v -1 c 0,0.6045 -0.489293,1.016 -1,1 L 4.984375,40.988281 C 4.489268,40.988181 4,40.537847 4,39.998047 Z"
           style="color:#000000;clip-rule:nonzero;display:inline;overflow:visible;visibility:visible;opacity:0.3;isolation:auto;mix-blend-mode:normal;color-interpolation:sRGB;color-interpolation-filters:linearRGB;solid-color:#000000;solid-opacity:1;fill:#000000;fill-opacity:1;fill-rule:nonzero;stroke:none;stroke-width:1;stroke-linecap:butt;stroke-linejoin:miter;stroke-miterlimit:4;stroke-dasharray:none;stroke-dashoffset:0;stroke-opacity:1;marker:none;color-rendering:auto;image-rendering:auto;shape-rendering:auto;text-rendering:auto;enable-background:accumulate"
           inkscape:connector-curvature="0" />
        <path
           id="path5132"
           d="m 6,1017.3622 c -0.554,0 -1,0.446 -1,1 v 1 c 0,-0.554 0.446,-1 1,-1 h 36 c 0.554,0 1,0.446 1,1 v -1 c 0,-0.554 -0.446,-1 -1,-1 z"
           style="color:#000000;clip-rule:nonzero;display:inline;overflow:visible;visibility:visible;opacity:0.85;isolation:auto;mix-blend-mode:normal;color-interpolation:sRGB;color-interpolation-filters:linearRGB;solid-color:#000000;solid-opacity:1;fill:url(#linearGradient4217);fill-opacity:1;fill-rule:nonzero;stroke:none;stroke-width:1;stroke-linecap:butt;stroke-linejoin:miter;stroke-miterlimit:4;stroke-dasharray:none;stroke-dashoffset:0;stroke-opacity:1;marker:none;color-rendering:auto;image-rendering:auto;shape-rendering:auto;text-rendering:auto;enable-background:accumulate"
           inkscape:connector-curvature="0" />
      </g>
      <g
         id="g5284"
         transform="matrix(1,0,0,1.05263,-176.57,-527.36756)">
        <path
           id="path5234"
           d="m 408.57,504.8 c 9.695,0 17.5,7.909 17.5,17.733 0,9.824 -7.805,11.4 -17.5,11.4 -9.695,0 -17.5,-1.576 -17.5,-11.4 0,-9.824 7.805,-17.733 17.5,-17.733"
           inkscape:connector-curvature="0"
           style="fill:#ffc35a" />
        <path
           style="fill:url(#c-7)"
           id="path5236"
           d="m 408.57,504.8 c -0.071,0 -0.139,0.009 -0.21,0.01 -0.664,1.956 -0.025,4.47 1.238,5.079 1.36,0.656 4.33,-0.672 5.269,-2.669 0.179,-0.381 0.249,-0.756 0.271,-1.123 -2.028,-0.829 -4.24,-1.296 -6.567,-1.296 m -1.167,0.059 c -2.719,0.181 -5.26,0.978 -7.495,2.266 0.245,0.656 0.758,1.223 1.533,1.672 1.699,0.985 4.65,1.139 5.713,-0.742 0.484,-0.857 0.508,-2.053 0.249,-3.196 m 8.281,2.934 c -0.611,0 -2.212,1.25 -2.212,1.804 0,0.553 1.286,1.962 1.897,1.962 0.611,0 0.396,-1.891 0.396,-2.444 0,-0.553 0.531,-1.321 -0.081,-1.321 m -13.308,1.705 c -0.811,-0.075 -1.932,0.833 -2.202,1.338 -0.309,0.577 -0.331,2.083 0.469,2.523 0.8,0.44 1.497,-0.553 1.807,-1.131 0.309,-0.577 1.051,-2.195 0.251,-2.635 -0.1,-0.055 -0.209,-0.086 -0.325,-0.097 m 4.919,0.198 c -0.887,0.012 -1.896,0.305 -2.727,0.698 -1.662,0.785 -1.984,2.786 -1.301,4.27 0.682,1.484 1.636,2.049 3.298,1.264 1.662,-0.785 3.405,-3.746 2.722,-5.23 -0.341,-0.742 -1.105,-1.013 -1.992,-1 m 4.724,0.668 c -0.359,0.03 -0.735,0.146 -1.125,0.356 -1.56,0.843 -2.106,3.304 -1.316,4.807 0.79,1.503 2.934,2.28 4.495,1.437 1.56,-0.843 1.315,-3.385 0.525,-4.889 -0.593,-1.127 -1.502,-1.801 -2.578,-1.712 m 4.451,2.264 c -0.908,0.056 -0.979,1.272 -0.94,1.927 0.039,0.656 0.254,2.426 1.162,2.37 0.908,-0.056 1.533,-1.754 1.494,-2.41 -0.039,-0.656 -0.808,-1.943 -1.716,-1.888 m -8.787,3.434 c -1.207,-0.019 -2.527,0.835 -3.123,1.749 -0.794,1.218 -1.184,2.238 0.2,3.164 1.384,0.927 3.544,0.77 4.338,-0.448 0.794,-1.218 1.106,-3.197 -0.278,-4.124 -0.346,-0.232 -0.735,-0.335 -1.138,-0.341 m -4.121,0.304 c -0.495,0 -1.213,0.378 -1.213,1.042 0,0.664 0.323,0.96 0.818,0.96 0.495,0 0.977,-0.296 0.977,-0.96 0,-0.664 -0.086,-1.042 -0.581,-1.042 m 7.893,1.442 c -0.764,0 -1.462,1.473 -1.462,2.402 0,0.929 1.013,0.962 1.777,0.962 0.764,0 1.78,-0.753 1.78,-1.682 0,-0.929 -1.331,-1.682 -2.095,-1.682"
           inkscape:connector-curvature="0" />
        <path
           style="fill:url(#b-4)"
           id="path5238"
           d="m 392.08033,527.71799 a 5.00433,8.858952 14.633555 0 1 -2.56498,-9.87587 5.00433,8.858952 14.633555 0 1 7.0943,-7.25319 5.00433,8.858952 14.633555 0 1 0.54755,0.22338 5.00437,17.717786 14.778482 0 1 -1.60478,8.66898 5.00437,17.717786 14.778482 0 1 -2.8915,8.32561 5.00433,8.858952 14.633555 0 1 -0.58058,-0.089"
           inkscape:connector-curvature="0" />
        <path
           id="path5240"
           d="m 389.05339,520.6061 a 5.00433,8.858952 14.633555 0 1 0.46123,-2.76395 5.00433,8.858952 14.633555 0 1 0.22806,-0.76642 c 1.716,0.231 1.755,-0.194 2.705,-0.383 1.06,-0.211 3.047,1.789 1.328,1.488 -1.718,-0.301 -2.221,2.466 -4.558,2.438 -0.072,-10e-4 -0.097,-0.011 -0.164,-0.013"
           inkscape:connector-curvature="0"
           style="color:#000000;color-interpolation:sRGB;color-interpolation-filters:linearRGB;fill:#2c3e50;fill-rule:evenodd;color-rendering:auto;image-rendering:auto;shape-rendering:auto;text-rendering:auto" />
        <path
           style="fill:url(#linearGradient5371)"
           id="path5242"
           d="m 425.06257,527.71799 a 8.858952,5.00433 75.36644 0 0 2.56497,-9.87587 8.858952,5.00433 75.36644 0 0 -7.0943,-7.25319 8.858952,5.00433 75.36644 0 0 -0.54755,0.22338 17.717786,5.00437 75.22152 0 0 1.60479,8.66898 17.717786,5.00437 75.22152 0 0 2.8915,8.32561 8.858952,5.00433 75.36644 0 0 0.58058,-0.089"
           inkscape:connector-curvature="0" />
        <g
           id="g5256"
           style="fill-rule:evenodd">
          <path
             id="path5244"
             d="m 428.0895,520.6061 a 8.858952,5.00433 75.36644 0 0 -0.46122,-2.76395 8.858952,5.00433 75.36644 0 0 -0.22806,-0.76642 c -1.716,0.231 -1.755,-0.194 -2.705,-0.383 -1.06,-0.211 -3.047,1.789 -1.328,1.488 1.718,-0.301 2.221,2.466 4.558,2.438 0.072,-10e-4 0.097,-0.011 0.164,-0.013"
             inkscape:connector-curvature="0"
             style="color:#000000;color-interpolation:sRGB;color-interpolation-filters:linearRGB;fill:#2c3e50;color-rendering:auto;image-rendering:auto;shape-rendering:auto;text-rendering:auto" />
          <g
             id="g5250"
             style="fill:#ffc35a">
            <path
               id="path5246"
               d="m 399.91,508.61 c 0,0 -5,-1.267 -5,1.267 0,1.267 1.25,5.067 1.25,7.6 0,2.533 2.5,-3.8 2.5,-3.8 z"
               inkscape:connector-curvature="0" />
            <path
               id="path5248"
               d="m 417.32,508.6 c 0,0 5,-1.267 5,1.267 0,1.267 -1.25,5.067 -1.25,7.6 0,2.533 -2.5,-3.8 -2.5,-3.8 z"
               inkscape:connector-curvature="0" />
          </g>
          <path
             id="path5252"
             d="m 394.51,530.13 c 0,0 -4.386,-1.271 -3.28,-3.213 0.553,-0.971 3.171,-3.323 4.277,-5.265 1.106,-1.942 0.257,4.03 0.257,4.03 z"
             inkscape:connector-curvature="0"
             style="fill:url(#g)" />
          <path
             id="path5254"
             d="m 422.64,530.13 c 0,0 4.386,-1.271 3.28,-3.213 -0.553,-0.971 -3.171,-3.323 -4.277,-5.265 -1.106,-1.942 -0.257,4.03 -0.257,4.03 z"
             inkscape:connector-curvature="0"
             style="fill:url(#h)" />
        </g>
        <use
           id="use5258"
           xlink:href="#q"
           style="fill:url(#f)"
           x="0"
           y="0"
           width="100%"
           height="100%" />
        <g
           id="g5272"
           style="fill-rule:evenodd">
          <path
             id="path5260"
             d="m 423.57,526.33 v 3.459 c 0.697,-0.284 1.578,-0.739 2.097,-1.333 z"
             inkscape:connector-curvature="0"
             style="opacity:0.1;fill:url(#n)" />
          <path
             id="path5262"
             d="m 422.32,525.06 c 3.75,2.533 0,5.067 2.5,7.6 2.5,2.533 3.75,1.267 3.75,2.533 0,1.267 -3.75,3.8 -6.25,1.267 -2.5,-2.533 -2.5,-3.8 -2.5,-3.8 0,0 -2.5,-2.533 -1.25,-5.067 1.25,-2.533 3.75,-2.533 3.75,-2.533"
             inkscape:connector-curvature="0"
             style="fill:url(#i)" />
          <path
             id="path5264"
             d="m 419.05,526.82 c -0.173,0.23 -0.338,0.483 -0.483,0.777 v 3.097 c 0.47,1.154 1.25,1.969 1.25,1.969 0,0 0,1.267 2.5,3.8 2.01,2.04 4.804,0.796 5.828,-0.428 l -3.328,-3.372 z"
             inkscape:connector-curvature="0"
             style="opacity:0.1;fill:url(#m)" />
          <path
             id="path5266"
             d="m 415.11,537.93 c 0.971,3.671 6.827,4.075 8.466,2.338 1.639,-1.737 -1.782,-1.53 -2.429,-3.977 -0.647,-2.447 0.884,-1.551 -0.087,-5.222 -0.971,-3.671 -3.734,-6 -3.734,-6 l -5,2.533 z"
             inkscape:connector-curvature="0"
             style="fill:url(#j)" />
          <path
             id="path5268"
             d="m 413.82,526.33 -0.25,0.633 v 5.272 l 1.533,5.69 c 0.971,3.671 6.828,4.075 8.467,2.338 1.639,-1.737 -1.752,-1.536 -2.429,-3.976 -0.474,-1.707 0.059,-1.653 0.137,-2.415 z"
             inkscape:connector-curvature="0"
             style="opacity:0.1;fill:url(#linearGradient5373)" />
          <path
             id="path5270"
             d="m 408.57,531.4 v 5.067 c 0,3.8 3.75,6.333 7.5,6.333 3.75,0 -1.25,-2.533 0,-6.333 1.25,-3.8 -2.5,-11.4 -2.5,-11.4 l -5,1.267 z"
             inkscape:connector-curvature="0"
             style="fill:url(#k)" />
        </g>
        <use
           id="use5274"
           xlink:href="#q"
           style="fill:url(#p)"
           x="0"
           y="0"
           width="100%"
           height="100%" />
        <g
           id="g5282"
           style="fill-rule:evenodd">
          <path
             id="path5276"
             d="m 402.04,537.93 c -0.971,3.671 -6.827,4.075 -8.466,2.338 -1.639,-1.737 1.782,-1.53 2.429,-3.977 0.647,-2.447 -0.884,-1.551 0.087,-5.222 0.971,-3.671 3.734,-6 3.734,-6 l 5,2.533 z"
             inkscape:connector-curvature="0"
             style="fill:url(#e)" />
          <path
             id="path5278"
             d="m 408.57,531.4 v 5.067 c 0,3.8 -3.75,6.333 -7.5,6.333 -3.75,0 1.25,-2.533 0,-6.333 -1.25,-3.8 2.5,-11.4 2.5,-11.4 l 5,1.267 z"
             inkscape:connector-curvature="0"
             style="fill:url(#linearGradient5375)" />
          <path
             id="path5280"
             d="m 394.92,509.97 c 0.038,1.255 1.098,4.611 1.216,7.083 a 5.00437,17.717786 14.778482 0 1 -0.58594,2.4319 5.00437,17.717786 14.778482 0 1 -1.09862,3.66887 c -1.23,1.529 -2.812,3.038 -3.228,3.768 -0.013,0.023 -0.013,0.044 -0.024,0.067 l -0.129,0.614 0.688,1.163 c 0.417,0.353 0.947,0.638 1.438,0.861 0.12,1.014 0.125,2.029 -0.876,3.043 -2.5,2.533 -3.75,1.267 -3.75,2.533 0,1.267 3.75,3.8 6.25,1.267 0.565,-0.572 0.987,-1.071 1.326,-1.514 0.038,0.318 0.016,0.723 -0.146,1.338 -0.647,2.447 -4.068,2.239 -2.429,3.976 1.639,1.737 7.496,1.333 8.467,-2.338 l 1.143,-4.243 c 1.699,0.172 3.501,0.247 5.391,0.247 3.365,0 6.491,-0.2 9.153,-0.858 z"
             inkscape:connector-curvature="0"
             style="opacity:0.1;fill:url(#o)" />
        </g>
      </g>
    </g>
  </g>
</svg>
